<svg aria-hidden="true" style="position:absolute;width:0;height:0;overflow:hidden" xmlns="http://www.w3.org/2000/svg">
  <defs>
    <symbol id="icon-source" viewBox="0 0 32 32">
      <path d="M8 2.667a4 4 0 0 1 4 4 4.021 4.021 0 0 1-2.587 3.747c.12.613.44 1.36 1.253 2.427 1.333 1.72 4 4.267 5.333 6.053 1.333-1.787 4-4.333 5.333-6.053.813-1.067 1.133-1.813 1.253-2.427a4.02 4.02 0 0 1-2.587-3.747 4 4 0 0 1 8 0 4.02 4.02 0 0 1-2.733 3.8c-.107.693-.413 1.533-1.267 2.64-1.333 1.787-4 4.333-5.333 6.067-.813 1.053-1.133 1.8-1.253 2.413a4.02 4.02 0 0 1 2.587 3.747 4 4 0 0 1-8 0 4.021 4.021 0 0 1 2.587-3.747c-.12-.613-.44-1.36-1.253-2.413-1.333-1.733-4-4.28-5.333-6.067-.853-1.107-1.16-1.947-1.267-2.64A4.018 4.018 0 0 1 4 6.667a4 4 0 0 1 4-4zm0 2.666a1.333 1.333 0 0 0 0 2.666 1.333 1.333 0 0 0 0-2.666zm16 0a1.333 1.333 0 0 0 0 2.666 1.333 1.333 0 0 0 0-2.666zM16 24a1.333 1.333 0 0 0 0 2.666A1.333 1.333 0 0 0 16 24z"/>
    </symbol>
    <symbol id="icon-eye" viewBox="0 0 32 32">
      <path d="M16 6C9.333 6 3.64 10.147 1.333 16c2.307 5.853 8 10 14.667 10 .48 0 .96 0 1.44-.067a8.085 8.085 0 0 1-.107-1.267c0-.48.053-.96.133-1.44-.48.053-.973.107-1.467.107-5.013 0-9.56-2.853-11.76-7.333a13.095 13.095 0 0 1 23.52 0c-.16.32-.347.6-.52.907.88.213 1.72.573 2.48 1.093.36-.667.68-1.333.947-2-2.307-5.853-8-10-14.667-10zm0 6a4 4 0 0 0 0 8 4 4 0 0 0 0-8zm8 7.333v4h-4V26h4v4h2.667v-4h4v-2.667h-4v-4H24z"/>
    </symbol>
    <symbol id="icon-star" viewBox="0 0 32 32">
      <path d="m7.733 28 2.133-9.333-7.2-6.4 9.6-.8 3.733-8.8 3.733 8.8 9.6.8L25.065 16h-1.067c-.933 0-1.867.133-2.8.533L24.131 14l-5.867-.533-2.267-5.333-2.267 5.333L7.863 14l4.4 3.867L10.93 23.6l5.067-3.067.667.4c-.267.667-.533 1.467-.533 2.133l-8.4 4.933zm14.934-9.333v4h-4v2.667h4v4h2.667v-4h4v-2.667h-4v-4h-2.667z"/>
    </symbol>
    <symbol id="icon-bell" viewBox="0 0 32 32">
      <path d="M28 25.333v1.333H4v-1.333l2.667-2.667v-8a9.322 9.322 0 0 1 6.667-8.947v-.387a2.667 2.667 0 1 1 5.334 0v.387a9.32 9.32 0 0 1 6.667 8.947v8l2.667 2.667zM18.667 28a2.667 2.667 0 1 1-5.334 0zm7.666-23.747L24.44 6.146a11.975 11.975 0 0 1 3.56 8.52h2.667c0-3.907-1.547-7.667-4.333-10.413zm-25 10.414H4c0-3.2 1.28-6.267 3.56-8.52L5.667 4.254a14.614 14.614 0 0 0-4.333 10.413z"/>
    </symbol>
    <symbol id="icon-magnify" viewBox="0 0 32 32">
      <path d="M12.667 4a8.667 8.667 0 0 1 8.667 8.667c0 2.147-.787 4.12-2.08 5.64l.36.36h1.053l6.667 6.667-2 2-6.667-6.667v-1.053l-.36-.36a8.689 8.689 0 0 1-5.64 2.08 8.667 8.667 0 0 1 0-17.334zm0 2.667c-3.333 0-6 2.667-6 6s2.667 6 6 6 6-2.667 6-6-2.667-6-6-6z"/>
    </symbol>
    <symbol id="icon-shield-check" viewBox="0 0 32 32">
      <path d="M13.333 22.667 8 17.334l1.88-1.88 3.453 3.44 8.787-8.787L24 12zM16 1.333 4 6.666v8c0 7.4 5.12 14.32 12 16 6.88-1.68 12-8.6 12-16v-8L16 1.333z"/>
    </symbol>
    <symbol id="icon-help" viewBox="0 0 32 32">
      <path d="M14.667 24h2.667v-2.667h-2.667V24zM16 8a5.333 5.333 0 0 0-5.333 5.333h2.667a2.667 2.667 0 1 1 5.334 0c0 2.667-4 2.333-4 6.667h2.667c0-3 4-3.333 4-6.667A5.333 5.333 0 0 0 16.002 8zM6.667 4h18.667a2.667 2.667 0 0 1 2.667 2.667v18.667a2.667 2.667 0 0 1-2.667 2.667H6.667A2.667 2.667 0 0 1 4 25.334V6.667A2.667 2.667 0 0 1 6.667 4z"/>
    </symbol>
    <symbol id="icon-cog" viewBox="0 0 32 32">
      <path d="M16 20.667a4.667 4.667 0 0 1 0-9.334 4.667 4.667 0 0 1 0 9.334zm9.907-3.374C25.96 16.866 26 16.44 26 16s-.04-.88-.093-1.333l2.813-2.173c.253-.2.32-.56.16-.853l-2.667-4.613a.655.655 0 0 0-.813-.293l-3.32 1.333c-.693-.52-1.413-.973-2.253-1.307l-.493-3.533a.674.674 0 0 0-.667-.56h-5.333a.675.675 0 0 0-.667.56l-.493 3.533c-.84.333-1.56.787-2.253 1.307l-3.32-1.333a.655.655 0 0 0-.813.293l-2.667 4.613a.658.658 0 0 0 .16.853l2.813 2.173c-.053.453-.093.893-.093 1.333s.04.867.093 1.293l-2.813 2.213a.658.658 0 0 0-.16.853l2.667 4.613c.16.293.52.4.813.293l3.32-1.347c.693.533 1.413.987 2.253 1.32l.493 3.533c.053.32.333.56.667.56h5.333c.333 0 .613-.24.667-.56l.493-3.533a9.723 9.723 0 0 0 2.253-1.32l3.32 1.347a.67.67 0 0 0 .813-.293l2.667-4.613a.673.673 0 0 0-.16-.853l-2.813-2.213z"/>
    </symbol>
    <symbol id="icon-account-group" viewBox="0 0 32 32">
      <path d="M16 7.333a4.667 4.667 0 0 1 0 9.334 4.667 4.667 0 0 1 0-9.334zm-9.333 3.334c.747 0 1.44.2 2.04.56a7.38 7.38 0 0 0 1.507 5.28 3.997 3.997 0 0 1-7.547-1.84 4 4 0 0 1 4-4zm18.666 0a4 4 0 0 1 0 8c-1.547 0-2.88-.88-3.547-2.16a7.38 7.38 0 0 0 1.507-5.28c.6-.36 1.293-.56 2.04-.56zm-18 13.666c0-2.76 3.88-5 8.667-5s8.667 2.24 8.667 5v2.333H7.334v-2.333zM0 26.667v-2c0-1.853 2.52-3.413 5.933-3.867-.787.907-1.267 2.16-1.267 3.533v2.333H-.001zm32 0h-4.667v-2.333c0-1.373-.48-2.627-1.267-3.533 3.413.453 5.933 2.013 5.933 3.867v2z"/>
    </symbol>
    <symbol id="icon-tasks" viewBox="0 0 32 32">
      <path d="M20 9.333h7.333L20 2v7.333zM10.667 0h10.667l8 8v16a2.667 2.667 0 0 1-2.667 2.667h-16C9.187 26.667 8 25.467 8 24V2.667A2.667 2.667 0 0 1 10.667 0zM5.333 5.333v24h21.333V32H5.333a2.667 2.667 0 0 1-2.667-2.667v-24h2.667z"/>
    </symbol>
    <symbol id="icon-clock" viewBox="0 0 32 32">
      <path d="M16 2.667c-7.333 0-13.333 6-13.333 13.333s6 13.333 13.333 13.333 13.333-6 13.333-13.333S23.333 2.667 16 2.667zm6.667 14.666h-8v-8h2v6h6v2z"/>
    </symbol>
    <symbol id="icon-message" viewBox="0 0 32 32">
      <path d="M29.333 5.333c0-1.48-1.2-2.667-2.667-2.667H5.333a2.667 2.667 0 0 0-2.667 2.667v16A2.667 2.667 0 0 0 5.333 24H24l5.333 5.333v-24z"/>
    </symbol>
    <symbol id="icon-profile" viewBox="0 0 32 32">
      <path d="M29.333 4H2.666A2.766 2.766 0 0 0-.001 6.667v18.667a2.766 2.766 0 0 0 2.667 2.667h26.667A2.766 2.766 0 0 0 32 25.334V6.667A2.766 2.766 0 0 0 29.333 4zm0 21.333H2.666V6.666h26.667v18.667zm-10.666-2.666V21c0-2.213-4.453-3.333-6.667-3.333S5.333 18.787 5.333 21v1.667h13.333zM12 9.333a3.333 3.333 0 1 0 0 6.666 3.333 3.333 0 1 0 0-6.666zm6.667 0v1.333h8V9.333h-8zm0 2.667v1.333h8V12h-8zm0 2.667V16H24v-1.333h-5.333z"/>
    </symbol>
    <symbol id="icon-home" viewBox="0 0 32 32">
      <path d="M13.333 26.667v-8h5.333v8h6.667V16h4L16 4 2.667 16h4v10.667h6.667z"/>
    </symbol>
    <symbol id="icon-dashboard" viewBox="0 0 32 32">
      <path d="M17.333 4v8H28V4zm0 24H28V14.667H17.333zM4 28h10.667v-8H4zm0-10.667h10.667V4H4v13.333z"/>
    </symbol>
  </defs>
</svg>
